<mxfile host="app.diagrams.net" modified="2023-10-04T06:25:49.851Z" agent="Mozilla/5.0 (Windows NT 10.0; Win64; x64) AppleWebKit/537.36 (KHTML, like Gecko) Chrome/117.0.0.0 Safari/537.36" etag="DQlxmiMfWe2n2G41QMBj" version="22.0.2" type="github">
  <diagram name="Page-1" id="2YBvvXClWsGukQMizWep">
    <mxGraphModel dx="2693" dy="809" grid="1" gridSize="10" guides="1" tooltips="1" connect="1" arrows="1" fold="1" page="1" pageScale="1" pageWidth="850" pageHeight="1100" math="0" shadow="0">
      <root>
        <mxCell id="0" />
        <mxCell id="1" parent="0" />
        <mxCell id="jzckfqYeWctJtNmcKv05-22" value="" style="rounded=0;whiteSpace=wrap;html=1;" parent="1" vertex="1">
          <mxGeometry x="364" y="710" width="122" height="40" as="geometry" />
        </mxCell>
        <mxCell id="jzckfqYeWctJtNmcKv05-18" value="" style="endArrow=none;dashed=1;html=1;dashPattern=1 3;strokeWidth=2;rounded=0;" parent="1" edge="1">
          <mxGeometry width="50" height="50" relative="1" as="geometry">
            <mxPoint x="-115" y="730" as="sourcePoint" />
            <mxPoint x="965" y="730" as="targetPoint" />
          </mxGeometry>
        </mxCell>
        <mxCell id="jzckfqYeWctJtNmcKv05-21" value="Alternate Scenario" style="edgeLabel;html=1;align=center;verticalAlign=middle;resizable=0;points=[];" parent="jzckfqYeWctJtNmcKv05-18" vertex="1" connectable="0">
          <mxGeometry x="-0.0152" y="1" relative="1" as="geometry">
            <mxPoint x="11" y="1" as="offset" />
          </mxGeometry>
        </mxCell>
        <mxCell id="jzckfqYeWctJtNmcKv05-9" value="If no account exists under the entered info" style="swimlane;fontStyle=0;childLayout=stackLayout;horizontal=1;startSize=26;fillColor=none;horizontalStack=0;resizeParent=1;resizeParentMax=0;resizeLast=0;collapsible=1;marginBottom=0;html=1;" parent="1" vertex="1">
          <mxGeometry x="-70" y="540" width="940" height="160" as="geometry" />
        </mxCell>
        <mxCell id="R3fOsro8TMt8DzRH_CVn-8" value="Info entered by user is then saved" style="html=1;verticalAlign=bottom;endArrow=block;edgeStyle=elbowEdgeStyle;elbow=vertical;curved=0;rounded=0;" parent="jzckfqYeWctJtNmcKv05-9" edge="1">
          <mxGeometry relative="1" as="geometry">
            <mxPoint x="630" y="60" as="sourcePoint" />
            <Array as="points">
              <mxPoint x="934.6" y="60.00999999999999" />
            </Array>
            <mxPoint x="929.5" y="60.00999999999999" as="targetPoint" />
          </mxGeometry>
        </mxCell>
        <mxCell id="R3fOsro8TMt8DzRH_CVn-9" value="Validation success" style="html=1;verticalAlign=bottom;endArrow=open;dashed=1;endSize=8;edgeStyle=elbowEdgeStyle;elbow=vertical;curved=0;rounded=0;" parent="jzckfqYeWctJtNmcKv05-9" target="R3fOsro8TMt8DzRH_CVn-6" edge="1">
          <mxGeometry relative="1" as="geometry">
            <mxPoint x="670" y="90" as="targetPoint" />
            <Array as="points" />
            <mxPoint x="930.5" y="90" as="sourcePoint" />
          </mxGeometry>
        </mxCell>
        <mxCell id="R3fOsro8TMt8DzRH_CVn-5" value="Registration Complete" style="html=1;verticalAlign=bottom;endArrow=block;edgeStyle=elbowEdgeStyle;elbow=vertical;curved=0;rounded=0;" parent="jzckfqYeWctJtNmcKv05-9" edge="1">
          <mxGeometry relative="1" as="geometry">
            <mxPoint x="305" y="130" as="sourcePoint" />
            <Array as="points">
              <mxPoint x="200.5" y="130" />
              <mxPoint x="320.5" y="120" />
            </Array>
            <mxPoint x="20" y="130" as="targetPoint" />
          </mxGeometry>
        </mxCell>
        <mxCell id="hPwz4SWx86SpTgj-OJKq-1" value="Send verification email" style="html=1;verticalAlign=bottom;endArrow=block;edgeStyle=elbowEdgeStyle;elbow=vertical;curved=0;rounded=0;" edge="1" parent="jzckfqYeWctJtNmcKv05-9">
          <mxGeometry relative="1" as="geometry">
            <mxPoint x="635.25" y="120" as="sourcePoint" />
            <Array as="points">
              <mxPoint x="530.75" y="120" />
              <mxPoint x="650.75" y="110" />
            </Array>
            <mxPoint x="304.75" y="120" as="targetPoint" />
          </mxGeometry>
        </mxCell>
        <mxCell id="aM9ryv3xv72pqoxQDRHE-1" value="User" style="shape=umlLifeline;perimeter=lifelinePerimeter;whiteSpace=wrap;html=1;container=0;dropTarget=0;collapsible=0;recursiveResize=0;outlineConnect=0;portConstraint=eastwest;newEdgeStyle={&quot;edgeStyle&quot;:&quot;elbowEdgeStyle&quot;,&quot;elbow&quot;:&quot;vertical&quot;,&quot;curved&quot;:0,&quot;rounded&quot;:0};" parent="1" vertex="1">
          <mxGeometry x="-100" y="390" width="100" height="530" as="geometry" />
        </mxCell>
        <mxCell id="aM9ryv3xv72pqoxQDRHE-5" value="Patient Database" style="shape=umlLifeline;perimeter=lifelinePerimeter;whiteSpace=wrap;html=1;container=0;dropTarget=0;collapsible=0;recursiveResize=0;outlineConnect=0;portConstraint=eastwest;newEdgeStyle={&quot;edgeStyle&quot;:&quot;elbowEdgeStyle&quot;,&quot;elbow&quot;:&quot;vertical&quot;,&quot;curved&quot;:0,&quot;rounded&quot;:0};" parent="1" vertex="1">
          <mxGeometry x="810" y="390" width="120" height="530" as="geometry" />
        </mxCell>
        <mxCell id="aM9ryv3xv72pqoxQDRHE-7" value="User clicks the &quot;Register&quot; button" style="html=1;verticalAlign=bottom;endArrow=block;edgeStyle=elbowEdgeStyle;elbow=vertical;curved=0;rounded=0;" parent="1" target="R3fOsro8TMt8DzRH_CVn-1" edge="1">
          <mxGeometry relative="1" as="geometry">
            <mxPoint x="-50" y="470" as="sourcePoint" />
            <Array as="points" />
            <mxPoint x="180" y="480" as="targetPoint" />
          </mxGeometry>
        </mxCell>
        <mxCell id="R3fOsro8TMt8DzRH_CVn-1" value="Log-in/Registration Page" style="shape=umlLifeline;perimeter=lifelinePerimeter;whiteSpace=wrap;html=1;container=0;dropTarget=0;collapsible=0;recursiveResize=0;outlineConnect=0;portConstraint=eastwest;newEdgeStyle={&quot;edgeStyle&quot;:&quot;elbowEdgeStyle&quot;,&quot;elbow&quot;:&quot;vertical&quot;,&quot;curved&quot;:0,&quot;rounded&quot;:0};" parent="1" vertex="1">
          <mxGeometry x="160" y="390" width="150" height="530" as="geometry" />
        </mxCell>
        <mxCell id="R3fOsro8TMt8DzRH_CVn-6" value="Login/Authorization Module" style="shape=umlLifeline;perimeter=lifelinePerimeter;whiteSpace=wrap;html=1;container=0;dropTarget=0;collapsible=0;recursiveResize=0;outlineConnect=0;portConstraint=eastwest;newEdgeStyle={&quot;edgeStyle&quot;:&quot;elbowEdgeStyle&quot;,&quot;elbow&quot;:&quot;vertical&quot;,&quot;curved&quot;:0,&quot;rounded&quot;:0};" parent="1" vertex="1">
          <mxGeometry x="510" y="390" width="110" height="530" as="geometry" />
        </mxCell>
        <mxCell id="R3fOsro8TMt8DzRH_CVn-7" value="User enters their info to create account" style="html=1;verticalAlign=bottom;endArrow=block;edgeStyle=elbowEdgeStyle;elbow=vertical;curved=0;rounded=0;" parent="1" edge="1">
          <mxGeometry relative="1" as="geometry">
            <mxPoint x="-50" y="500" as="sourcePoint" />
            <Array as="points">
              <mxPoint x="-44.5" y="500" />
            </Array>
            <mxPoint x="235" y="500.41999999999996" as="targetPoint" />
          </mxGeometry>
        </mxCell>
        <mxCell id="R3fOsro8TMt8DzRH_CVn-10" value="Account creation successful" style="html=1;verticalAlign=bottom;endArrow=open;dashed=1;endSize=8;edgeStyle=elbowEdgeStyle;elbow=vertical;curved=0;rounded=0;" parent="1" edge="1" source="R3fOsro8TMt8DzRH_CVn-6">
          <mxGeometry relative="1" as="geometry">
            <mxPoint x="230" y="639" as="targetPoint" />
            <Array as="points" />
            <mxPoint x="540" y="639" as="sourcePoint" />
          </mxGeometry>
        </mxCell>
        <mxCell id="jzckfqYeWctJtNmcKv05-1" value="Sends user input" style="html=1;verticalAlign=bottom;endArrow=block;edgeStyle=elbowEdgeStyle;elbow=vertical;curved=0;rounded=0;" parent="1" edge="1" target="R3fOsro8TMt8DzRH_CVn-6">
          <mxGeometry relative="1" as="geometry">
            <mxPoint x="234.5" y="514.5" as="sourcePoint" />
            <Array as="points">
              <mxPoint x="400" y="515" />
              <mxPoint x="285.5" y="424.5" />
            </Array>
            <mxPoint x="530" y="515" as="targetPoint" />
          </mxGeometry>
        </mxCell>
        <mxCell id="jzckfqYeWctJtNmcKv05-13" value="If an account exists under the entered info" style="swimlane;fontStyle=0;childLayout=stackLayout;horizontal=1;startSize=26;fillColor=none;horizontalStack=0;resizeParent=1;resizeParentMax=0;resizeLast=0;collapsible=1;marginBottom=0;html=1;" parent="1" vertex="1">
          <mxGeometry x="-70" y="760" width="940" height="160" as="geometry" />
        </mxCell>
        <mxCell id="jzckfqYeWctJtNmcKv05-15" value="Return &quot;Account already Exists&quot; message" style="html=1;verticalAlign=bottom;endArrow=open;dashed=1;endSize=8;edgeStyle=elbowEdgeStyle;elbow=vertical;curved=0;rounded=0;" parent="jzckfqYeWctJtNmcKv05-13" target="R3fOsro8TMt8DzRH_CVn-1" edge="1">
          <mxGeometry relative="1" as="geometry">
            <mxPoint x="330" y="90" as="targetPoint" />
            <Array as="points" />
            <mxPoint x="630.5" y="90" as="sourcePoint" />
          </mxGeometry>
        </mxCell>
        <mxCell id="jzckfqYeWctJtNmcKv05-16" value="Validation failed" style="html=1;verticalAlign=bottom;endArrow=open;dashed=1;endSize=8;edgeStyle=elbowEdgeStyle;elbow=vertical;curved=0;rounded=0;" parent="jzckfqYeWctJtNmcKv05-13" edge="1">
          <mxGeometry relative="1" as="geometry">
            <mxPoint x="630" y="60" as="targetPoint" />
            <Array as="points" />
            <mxPoint x="930.5" y="60" as="sourcePoint" />
          </mxGeometry>
        </mxCell>
        <mxCell id="jzckfqYeWctJtNmcKv05-17" value="Display message" style="html=1;verticalAlign=bottom;endArrow=block;edgeStyle=elbowEdgeStyle;elbow=vertical;curved=0;rounded=0;" parent="jzckfqYeWctJtNmcKv05-13" edge="1">
          <mxGeometry relative="1" as="geometry">
            <mxPoint x="305" y="120" as="sourcePoint" />
            <Array as="points">
              <mxPoint x="200.5" y="120" />
              <mxPoint x="320.5" y="110" />
            </Array>
            <mxPoint x="20" y="120" as="targetPoint" />
          </mxGeometry>
        </mxCell>
        <mxCell id="hPwz4SWx86SpTgj-OJKq-4" value="Possible Scenarios" style="shape=table;startSize=30;container=1;collapsible=1;childLayout=tableLayout;fixedRows=1;rowLines=0;fontStyle=1;align=center;resizeLast=1;html=1;whiteSpace=wrap;" vertex="1" parent="1">
          <mxGeometry x="1070" y="380" width="830" height="540" as="geometry" />
        </mxCell>
        <mxCell id="hPwz4SWx86SpTgj-OJKq-8" value="" style="shape=tableRow;horizontal=0;startSize=0;swimlaneHead=0;swimlaneBody=0;fillColor=none;collapsible=0;dropTarget=0;points=[[0,0.5],[1,0.5]];portConstraint=eastwest;top=0;left=0;right=0;bottom=1;html=1;" vertex="1" parent="hPwz4SWx86SpTgj-OJKq-4">
          <mxGeometry y="30" width="830" height="230" as="geometry" />
        </mxCell>
        <mxCell id="hPwz4SWx86SpTgj-OJKq-9" value="&lt;br&gt;&lt;span style=&quot;color: rgb(0, 0, 0); font-family: Helvetica; font-size: 12px; font-style: normal; font-variant-ligatures: normal; font-variant-caps: normal; font-weight: 400; letter-spacing: normal; orphans: 2; text-align: center; text-indent: 0px; text-transform: none; widows: 2; word-spacing: 0px; -webkit-text-stroke-width: 0px; background-color: rgb(251, 251, 251); text-decoration-thickness: initial; text-decoration-style: initial; text-decoration-color: initial; float: none; display: inline !important;&quot;&gt;If account exist&lt;/span&gt;&lt;br&gt;" style="shape=partialRectangle;connectable=0;fillColor=none;top=0;left=0;bottom=0;right=0;fontStyle=1;overflow=hidden;html=1;whiteSpace=wrap;" vertex="1" parent="hPwz4SWx86SpTgj-OJKq-8">
          <mxGeometry width="140" height="230" as="geometry">
            <mxRectangle width="140" height="230" as="alternateBounds" />
          </mxGeometry>
        </mxCell>
        <mxCell id="hPwz4SWx86SpTgj-OJKq-10" value="" style="shape=partialRectangle;connectable=0;fillColor=none;top=0;left=0;bottom=0;right=0;align=left;spacingLeft=6;fontStyle=5;overflow=hidden;html=1;whiteSpace=wrap;" vertex="1" parent="hPwz4SWx86SpTgj-OJKq-8">
          <mxGeometry x="140" width="690" height="230" as="geometry">
            <mxRectangle width="690" height="230" as="alternateBounds" />
          </mxGeometry>
        </mxCell>
        <mxCell id="hPwz4SWx86SpTgj-OJKq-11" value="" style="shape=tableRow;horizontal=0;startSize=0;swimlaneHead=0;swimlaneBody=0;fillColor=none;collapsible=0;dropTarget=0;points=[[0,0.5],[1,0.5]];portConstraint=eastwest;top=0;left=0;right=0;bottom=0;html=1;" vertex="1" parent="hPwz4SWx86SpTgj-OJKq-4">
          <mxGeometry y="260" width="830" height="280" as="geometry" />
        </mxCell>
        <mxCell id="hPwz4SWx86SpTgj-OJKq-12" value="If account does not exist" style="shape=partialRectangle;connectable=0;fillColor=none;top=0;left=0;bottom=0;right=0;editable=1;overflow=hidden;html=1;whiteSpace=wrap;" vertex="1" parent="hPwz4SWx86SpTgj-OJKq-11">
          <mxGeometry width="140" height="280" as="geometry">
            <mxRectangle width="140" height="280" as="alternateBounds" />
          </mxGeometry>
        </mxCell>
        <mxCell id="hPwz4SWx86SpTgj-OJKq-13" value="" style="shape=partialRectangle;connectable=0;fillColor=none;top=0;left=0;bottom=0;right=0;align=left;spacingLeft=6;overflow=hidden;html=1;whiteSpace=wrap;" vertex="1" parent="hPwz4SWx86SpTgj-OJKq-11">
          <mxGeometry x="140" width="690" height="280" as="geometry">
            <mxRectangle width="690" height="280" as="alternateBounds" />
          </mxGeometry>
        </mxCell>
      </root>
    </mxGraphModel>
  </diagram>
</mxfile>
